<svg width="158" height="99" viewBox="0 0 158 99" fill="none" xmlns="http://www.w3.org/2000/svg">
<path d="M105.305 49.4989L131.63 74.2494L105.305 99L78.98 74.2494L105.305 49.4989Z" fill="#3998FF"/>
<path d="M52.6279 49.4749L78.9414 74.2144L52.6279 98.9539L26.3145 74.2144L52.6279 49.4749Z" fill="#D763FF"/>
<rect width="36.1654" height="36.1654" transform="matrix(0.728561 0.684981 -0.728561 0.684981 79 24.7719)" fill="#8A88FF"/>
<rect width="36.1654" height="36.1654" transform="matrix(0.728561 0.684981 -0.728561 0.684981 26.3486 24.7719)" fill="#FFB800"/>
<path d="M105.327 0L131.675 24.7726L105.327 49.5452L78.978 24.7726L105.327 0Z" fill="#8A88FF"/>
<path d="M52.6753 0L79.024 24.7726L52.6753 49.5452L26.3266 24.7726L52.6753 0Z" fill="#FF7979"/>
<rect width="36.1654" height="36.1654" transform="matrix(0.728561 0.684981 -0.728561 0.684981 131.651 24.7479)" fill="#19E6F3"/>
<path d="M79 24.7479L105.349 49.5205L79 74.2932L52.6513 49.5205L79 24.7479Z" fill="#3A36FF"/>
</svg>
