<svg width="512" height="110" viewBox="0 0 512 110" fill="none" xmlns="http://www.w3.org/2000/svg">
<path d="M105.305 55.4989L131.63 80.2494L105.305 105L78.98 80.2494L105.305 55.4989Z" fill="#3998FF"/>
<path d="M52.6279 55.4749L78.9414 80.2144L52.6279 104.954L26.3145 80.2144L52.6279 55.4749Z" fill="#D763FF"/>
<rect width="36.1654" height="36.1654" transform="matrix(0.728561 0.684981 -0.728561 0.684981 79 30.7719)" fill="#8A88FF"/>
<rect width="36.1654" height="36.1654" transform="matrix(0.728561 0.684981 -0.728561 0.684981 26.3486 30.7719)" fill="#FFB800"/>
<path d="M105.327 6L131.675 30.7726L105.327 55.5452L78.978 30.7726L105.327 6Z" fill="#8A88FF"/>
<path d="M52.6753 6L79.024 30.7726L52.6753 55.5452L26.3266 30.7726L52.6753 6Z" fill="#FF7979"/>
<rect width="36.1654" height="36.1654" transform="matrix(0.728561 0.684981 -0.728561 0.684981 131.651 30.7479)" fill="#19E6F3"/>
<path d="M79 30.7479L105.349 55.5205L79 80.2932L52.6513 55.5205L79 30.7479Z" fill="#3A36FF"/>
<path d="M204.772 89.672C198.436 89.672 192.612 88.2 187.3 85.256C182.052 82.312 177.86 78.216 174.724 72.968C171.652 67.656 170.116 61.704 170.116 55.112C170.116 48.52 171.652 42.6 174.724 37.352C177.86 32.104 182.052 28.008 187.3 25.064C192.612 22.12 198.436 20.648 204.772 20.648C211.108 20.648 216.9 22.12 222.148 25.064C227.46 28.008 231.62 32.104 234.628 37.352C237.7 42.6 239.236 48.52 239.236 55.112C239.236 61.704 237.7 67.656 234.628 72.968C231.556 78.216 227.396 82.312 222.148 85.256C216.9 88.2 211.108 89.672 204.772 89.672ZM204.772 74.696C210.148 74.696 214.436 72.904 217.636 69.32C220.9 65.736 222.532 61 222.532 55.112C222.532 49.16 220.9 44.424 217.636 40.904C214.436 37.32 210.148 35.528 204.772 35.528C199.332 35.528 194.98 37.288 191.716 40.808C188.516 44.328 186.916 49.096 186.916 55.112C186.916 61.064 188.516 65.832 191.716 69.416C194.98 72.936 199.332 74.696 204.772 74.696ZM289.649 89L275.921 68.36L263.825 89H245.201L266.801 54.728L244.721 21.608H263.825L277.361 41.96L289.265 21.608H307.889L286.481 55.592L308.753 89H289.649ZM333.41 34.76V48.392H355.394V61.064H333.41V75.848H358.274V89H316.994V21.608H358.274V34.76H333.41ZM385.347 21.608V89H368.931V21.608H385.347ZM457.532 89H441.116L413.66 47.432V89H397.244V21.608H413.66L441.116 63.368V21.608H457.532V89Z" fill="#6C63FF"/>
</svg>
